<svg width="100" height="91" viewBox="0 0 100 91" fill="none" xmlns="http://www.w3.org/2000/svg">
<path d="M91.2578 0.116005C89.8125 0.326942 88.7734 0.655067 87.2656 1.37382C83.4219 3.20194 81.2734 6.10038 80.0703 11.0769C79.5078 13.4051 79.4688 15.0926 79.9297 17.8816C80.1094 18.9519 80.1562 19.1863 80.8594 22.0613C81.5469 24.8894 81.7656 25.8504 81.9453 26.9441C82.6797 31.3973 81.9375 35.7644 80.125 37.7019C79.5703 38.3035 79.2109 38.5223 78.4531 38.7332L77.8828 38.8894L76.9297 38.6316C75.4453 38.2254 73.9219 37.8816 72.7891 37.6863C69.6328 37.1551 63.5781 37.2566 55.4297 37.9676C53.0938 38.1707 51.6094 38.3738 46.4062 39.2019C40.6484 40.1238 37.2969 40.3973 33.8828 40.2332C29.9531 40.0379 27.3906 39.5301 25.3516 38.5379C23.7109 37.7488 22.5078 36.8894 20.75 35.2801C20.2031 34.7723 19.5469 34.2098 19.3047 34.0301C17.3281 32.5223 14.7812 31.6394 12.4141 31.6316C11.6953 31.6316 11.6562 31.6238 11.5312 31.4363C11.2578 31.0144 10.3281 30.1082 9.65624 29.6082C7.87499 28.2723 5.93749 27.4598 4.28124 27.3582L3.52343 27.3113L3.46874 27.5301C3.32812 28.0926 3.60937 29.5926 3.92187 29.9519C4.08593 30.1394 3.92968 30.1082 3.28124 29.8269C2.71093 29.5769 1.76562 29.2644 0.124991 28.7644C-0.0156343 28.7254 -0.0234468 28.7566 0.0312407 29.3035C0.101553 30.0691 0.468741 31.5301 0.773428 32.2723C1.28905 33.5066 2.01562 34.4832 3.11718 35.3973C3.48437 35.7098 3.80468 35.9676 3.8203 35.9832C3.83593 35.991 3.60937 36.2723 3.3203 36.6004C2.67968 37.3348 2.32812 37.8738 2.03124 38.5769C1.55468 39.7019 1.32812 41.0613 1.32812 42.8504C1.32812 44.3582 1.1953 45.3816 0.773428 47.2332C0.617178 47.9051 0.554678 48.3035 0.601553 48.3894C0.749991 48.6551 1.46874 49.3269 1.90624 49.6082C2.5078 49.9988 3.04687 50.2019 3.85155 50.3113C4.41405 50.3973 4.59374 50.3894 5.16405 50.2801C5.87499 50.1316 6.6953 49.7723 7.28905 49.3504L7.66405 49.0769L8.70312 50.1004C9.74218 51.116 9.7578 51.1316 11.6328 53.9754C14.9609 59.0301 15.1797 59.3113 16.6797 60.8113C17.9375 62.0769 19.5391 63.2879 21.2812 64.3035L21.6406 64.5223L21 65.1941C20.6406 65.5691 19.8594 66.2957 19.2656 66.8113C17.1562 68.6394 15.1641 70.6707 12.8906 73.3113C12.2578 74.0457 11.5625 74.8191 11.3359 75.0301C10.0469 76.2332 9.1953 77.866 8.05468 81.2801C7.62499 82.5691 7.23437 83.8426 7.17968 84.1082C6.96093 85.2644 7.27343 86.3504 7.9453 86.8191C8.20312 86.9988 8.37499 87.0535 8.80468 87.0769C9.57812 87.1316 10.125 86.9129 10.75 86.2879C11.25 85.7801 11.2969 85.7019 12.0469 83.8973C13.2031 81.1004 13.6484 80.3113 14.6016 79.3582C15.3203 78.6473 15.2109 78.7098 17.6328 77.5691C20.5859 76.1863 23.0469 74.6707 25.1484 72.9598C25.8828 72.3582 28.1172 70.366 29.0703 69.4676L29.3516 69.2019L29.8437 69.7098C31.375 71.2957 31.9141 72.5457 33.3906 77.9598C33.7578 79.3113 34.2031 80.9285 34.375 81.5535C34.5547 82.1785 34.7266 82.8426 34.7656 83.0379C35.0625 84.4207 35.2422 85.6394 35.1719 85.6941C35.1406 85.7176 34.8437 85.9441 34.5078 86.1941C32.875 87.4207 32.3594 88.6394 33.1016 89.5301C33.3828 89.866 33.7266 90.0144 34.9297 90.3348C36.3281 90.7019 37.0078 90.7176 37.7031 90.3894C38.5937 89.9676 39.2422 89.116 39.8281 87.6082C40.2656 86.4598 40.4609 85.5535 40.7422 83.3504C41.1094 80.4363 41.1094 78.5223 40.7031 69.9519C40.5937 67.5848 40.6016 66.366 40.7266 66.4207C42.9531 67.4051 44.7187 67.9051 47.1484 68.2644C48.9531 68.5301 49.9375 68.5926 52.1484 68.5926C55.5781 68.5926 58.4609 68.2019 60.4922 67.4676L61.0078 67.2801V69.6707C61.0156 70.9832 61.0469 72.5848 61.0938 73.2332C61.2578 75.7332 61.1562 77.4441 60.7109 79.6629C60.4062 81.1707 60.1172 82.1316 59.8594 82.5144C59.6641 82.8035 58.4766 83.7566 57.6719 84.2723C56.6094 84.9441 56.3828 85.116 55.9531 85.5457C54.7031 86.8113 54.6328 88.0848 55.7578 88.9441C56.3047 89.3582 56.8906 89.5457 57.6953 89.5457C58.8125 89.5535 59.7188 89.2019 61.2109 88.1863C62.1953 87.5223 62.4609 87.2801 63.4453 86.1238C63.8906 85.6082 64.5547 84.8504 64.9375 84.4363C65.5312 83.7879 65.6719 83.5769 66 82.8348C68.5391 77.1941 70.7891 73.8504 74.1875 70.6863L75.0078 69.9207L75.5234 70.6004C77.6016 73.3269 80.2891 76.0535 84.6641 79.866C85.7109 80.7801 86.0078 81.0769 86.0547 81.2723C86.4375 83.0926 86.4219 84.6941 86.0156 86.5144C85.9688 86.7254 85.8125 87.1004 85.6641 87.3348C84.8516 88.6707 84.8828 89.7488 85.75 90.3035C86.5859 90.8269 87.8438 90.8269 89.0078 90.2879C90.2344 89.7254 91.25 88.0691 91.6719 85.9676C92.3516 82.5301 91.7188 77.3738 90.2656 74.6238C90.1094 74.3269 89.6719 73.5535 89.2891 72.8973C87.7891 70.3426 87.3281 69.2098 87.0312 67.3973C86.9219 66.741 86.9609 65.1238 87.1094 63.5848C87.2266 62.4519 87.2266 59.6394 87.1172 58.3113C86.9219 55.866 86.5859 53.8035 85.9688 51.2644C85.7812 50.4832 85.7031 49.9754 85.7031 49.5457C85.7031 48.7957 85.5312 47.4676 85.3047 46.4207C85.2109 45.9988 85.125 45.5613 85.1016 45.4519C85.0703 45.2879 85.2031 45.0613 85.7812 44.2801C86.7109 43.0379 87.1484 42.3816 87.6406 41.5144C88.8984 39.2723 89.6172 36.8035 90.0156 33.3113C90.1484 32.1707 90.1484 27.6707 90.0156 26.4754C89.9609 25.9832 89.8438 24.9441 89.7656 24.1707C89.6797 23.3973 89.5781 22.4832 89.5312 22.1394C89.4922 21.7957 89.3984 21.0535 89.3359 20.4988C89.2656 19.9363 89.0859 18.6238 88.9297 17.5691C88.6719 15.8738 88.6406 15.4832 88.6328 14.0926C88.6328 12.7879 88.6562 12.4519 88.7734 12.0691C89.2734 10.4598 90.3438 9.45975 92.1094 8.95194C92.7266 8.77225 93.0703 8.72538 95.1328 8.50663C96.7969 8.32694 98.1953 7.74882 99.0859 6.85819C99.3906 6.5535 99.6797 6.1785 99.7734 5.95975C100.367 4.616 99.6641 2.69413 98.1563 1.56913C96.4375 0.28788 93.8516 -0.258995 91.2578 0.116005Z" fill="black"/>
</svg>
