<svg width="202" height="181" viewBox="0 0 202 181" fill="none" xmlns="http://www.w3.org/2000/svg">
<path d="M151.153 155.045C148.02 165.637 140.859 172.762 132.904 179.133C130.737 180.868 127.55 180.918 124.685 180.336C122.533 179.899 120.246 179.253 119.806 176.708C119.329 173.949 121.181 172.238 123.463 171.411C126.398 170.348 128.661 168.807 130.459 166.154C134.112 160.766 134.711 155.556 131.073 149.885C129.288 147.101 127.714 144.06 126.723 140.921C125.508 137.071 123.193 136.173 119.561 136.663C108.975 138.089 98.3321 138.481 87.683 137.658C83.4723 137.333 81.9741 138.949 82.2671 143.052C82.6222 148.025 82.58 153.024 82.8468 158.005C83.146 163.591 82.26 168.946 80.223 174.144C78.104 179.551 72.7724 182.018 67.2294 180.096C65.5723 179.521 64.131 178.64 63.8774 176.769C63.6235 174.896 64.6308 173.449 66.2755 172.773C70.9179 170.866 70.9268 167.545 69.8641 163.34C68.2625 157.002 66.0945 150.901 63.1465 145.106C60.2124 139.338 56.2978 138.659 51.9032 143.138C43.5965 151.605 34.3824 159.008 25.1345 166.376C21.7249 169.093 18.8698 172.334 15.9124 175.499C12.4872 179.166 7.18125 179.695 3.22129 176.97C1.48001 175.772 0.17789 174.304 0.611422 171.996C0.986239 170.001 2.30423 168.423 4.19425 168.276C9.45969 167.866 11.8398 164.074 14.3864 160.333C19.0686 153.456 23.9816 146.764 28.0106 139.42C31.1172 133.758 31.3351 127.648 32.423 121.643C32.6082 120.621 32.1766 119.263 31.5777 118.36C27.6194 112.393 23.5216 106.519 19.5032 100.592C17.7948 98.0726 15.364 97.4884 12.5273 97.6881C9.06491 97.9318 5.94992 97.0802 3.29898 94.6893C0.458163 92.1272 -1.22519 89.4547 1.08298 85.5652C2.36832 83.3995 2.65415 80.8777 2.60617 78.3205C2.53617 74.5885 3.90744 71.2137 6.99179 69.2447C10.825 66.7977 10.839 63.9667 9.27744 60.3312C8.43338 58.366 7.74918 56.2621 8.45291 54.1847C9.70615 52.3568 10.9453 54.2465 12.3714 53.9133C12.8925 52.742 13.4745 51.4337 14.0468 50.1473C14.7832 50.1473 15.2749 50.104 15.7542 50.1625C16.0736 50.2014 16.4486 50.3065 16.6742 50.516C25.0735 58.3191 34.8635 64.4284 43.2892 72.1451C46.8603 75.4156 50.1566 77.7189 55.135 78.5835C70.2814 81.2137 85.3294 79.6893 100.427 78.6856C117.077 77.5788 133.703 77.2437 150.131 80.978C156.77 82.487 159.883 81.3461 163.526 75.5786C169.543 66.051 169.502 55.7595 167.127 45.204C166.032 40.335 164.784 35.4858 163.993 30.5652C161.647 15.965 170.279 3.50248 184.625 0.532452C187.591 -0.081585 190.614 -0.314651 193.522 0.661347C197.475 1.98828 201.106 3.99129 201.077 8.81537C201.048 13.5878 197.251 14.9963 193.459 16.154C193.299 16.2026 193.143 16.2633 192.982 16.3028C179.439 19.6107 179.111 19.9464 181.31 33.7789C183.086 44.9473 185.425 56.0043 183.417 67.4488C181.792 76.7097 178.515 85.1158 171.966 91.9309C169.617 94.3751 169.324 96.4262 170.667 99.4404C173.661 106.16 175.171 113.301 176.309 120.576C177.352 127.245 180.81 132.955 186.374 136.678C191.312 139.983 193.067 144.377 193.029 149.778C192.989 155.362 193.263 160.712 196.892 165.401C197.998 166.83 198.223 168.839 197.952 170.696C197.478 173.947 196.652 177.245 192.629 177.471C188.738 177.689 188.031 174.615 187.18 171.55C185.759 166.43 183.969 161.41 182.272 156.369C181.61 154.404 180.283 152.906 178.451 151.919C170.702 147.741 162.389 144.742 154.743 139.941C151.472 144.718 151.135 149.62 151.153 155.045Z" fill="black"/>
</svg>
