<svg width="205" height="178" viewBox="0 0 205 178" fill="none" xmlns="http://www.w3.org/2000/svg">
<path d="M2.48548 164.422C6.51791 163.652 9.00303 161.521 11.1888 158.527C16.9812 150.594 23.9305 143.589 29.6022 135.521C33.955 129.329 34.7134 122.286 35.7047 115.214C36.1201 112.25 33.9458 110.295 32.6166 108.046C30.9222 105.179 29.027 102.43 27.3307 99.5638C25.3188 96.1644 22.8611 94.108 18.4658 94.5071C14.6511 94.8534 11.4573 92.9984 8.91898 89.9615C7.11127 87.7988 6.40331 85.7621 7.93767 83.1913C9.33507 80.8499 9.81174 78.2758 9.83296 75.5364C9.86147 71.8554 11.2154 68.4213 14.1753 66.3583C17.7811 63.8452 17.9721 61.0139 16.7008 57.3242C16.0153 55.3347 15.2526 53.2042 16.3482 50.6464C19.2456 51.4599 21.5285 50.5903 22.3088 46.9111C27.7751 48.8877 31.4787 52.3004 34.3191 56.7005C35.7191 58.8693 37.2424 60.6427 39.816 61.4599C44.4413 62.9285 47.9737 65.9106 50.6223 69.9245C53.0791 73.6476 56.4419 75.1431 60.8976 76.0017C78.5281 79.3995 96.0961 76.9414 113.677 76.1424C127.391 75.519 140.962 76.2411 154.384 79.1823C161.502 80.7421 164.852 79.3901 168.405 72.9986C173.655 63.5575 173.413 53.6026 171.181 43.3833C169.452 35.4687 166.84 27.6292 168.781 19.2794C171.813 6.23829 184.232 -2.28987 196.349 0.544307C201.646 1.78331 205.001 5.10797 204.551 9.13268C203.968 14.3603 199.83 15.6096 195.572 16.2122C185.226 17.6766 183.393 20.3488 185.006 30.8056C186.75 42.1168 189.516 53.358 187.444 64.9942C185.773 74.3799 182.673 83.0613 175.947 90.012C173.623 92.4131 173.332 94.5136 174.502 97.5625C177.002 104.08 179.219 110.674 179.629 117.799C180.06 125.3 183.716 131.504 189.134 136.489C192.828 139.887 194.761 143.987 195.075 148.737C195.417 153.903 196.193 158.961 197.056 164.052C198.365 171.773 194.157 176.875 187.393 176.337C183.114 175.997 181.655 173.256 183.721 169.438C186.995 163.386 185.181 155.257 179.544 151.601C171.87 146.624 164.094 141.806 156.095 136.751C153.113 139.81 152.345 143.601 152.151 147.62C151.519 160.68 142.358 168.177 133.482 175.695C131.226 177.605 127.862 177.664 124.817 176.91C122.844 176.422 120.819 175.827 120.454 173.406C120.067 170.838 121.676 169.28 123.716 168.332C126.283 167.139 128.756 166.143 130.578 163.65C134.48 158.31 135.953 153.081 131.84 147.155C130.527 145.264 129.312 143.077 128.862 140.861C127.67 134.995 124.522 133.27 118.706 134.312C108.529 136.136 98.1706 134.909 87.3134 135.065C87.3134 142.524 87.1546 149.638 87.3678 156.741C87.5163 161.686 86.4745 166.337 84.8734 170.911C83.1359 175.875 77.9546 178.407 72.8508 176.9C71.208 176.415 69.6647 175.713 69.1877 173.866C68.6571 171.811 69.5635 170 71.2386 169.181C75.5597 167.068 75.4531 163.538 74.5106 159.836C72.9491 153.701 71.1438 147.623 68.2021 141.971C64.8439 135.517 58.7953 134.412 53.5197 139.451C45.4102 147.197 36.4799 153.841 26.9882 159.76C22.2764 162.699 18.1385 166.236 14.7674 170.682C12.1521 174.131 8.61057 175.116 4.53281 173.877C-0.632997 172.306 -1.47799 168.873 2.48548 164.422Z" fill="black"/>
</svg>
