<svg width="199" height="182" viewBox="0 0 199 182" fill="none" xmlns="http://www.w3.org/2000/svg">
<path d="M71.3214 181.365C68.5058 181.102 66.0454 180.629 65.3884 177.923C64.7304 175.213 66.6863 173.465 68.742 172.356C71.3222 170.963 71.6479 169.078 71.093 166.527C69.4538 158.992 66.886 151.771 63.0897 145.096C60.2733 140.143 55.8272 139.463 52.0485 143.349C43.3036 152.341 33.5938 160.156 23.6869 167.789C20.8191 169.999 18.5495 172.99 16.0323 175.648C12.3959 179.488 8.19777 180.453 3.84215 178.305C1.67909 177.238 -0.255202 175.839 0.0275927 173.029C0.275079 170.569 1.95964 168.851 4.16404 168.588C8.72619 168.045 11.0565 165.001 13.3341 161.639C17.4431 155.573 21.5136 149.478 25.7725 143.518C30.3159 137.16 31.3704 129.756 32.601 122.364C32.8441 120.903 32.3595 119.782 31.5749 118.65C27.8744 113.313 24.142 107.996 20.532 102.598C18.6035 99.7144 16.2118 98.1607 12.607 98.5446C8.92869 98.9364 5.71505 97.7547 3.0774 95.095C1.03573 93.0363 0.0111055 90.7857 1.36883 87.9018C2.74139 84.9864 2.94264 81.8215 3.31626 78.6725C3.71984 75.2709 5.0105 72.032 7.8561 70.0522C11.1837 67.7371 11.2131 65.2392 9.68535 61.9272C8.66441 59.7139 8.01383 57.2718 8.44429 54.5397C10.8478 54.1003 14.6127 56.2879 13.7092 50.8462C19.2161 52.2721 23.0033 54.8424 25.7274 58.6911C28.1099 62.0572 30.7205 64.6665 34.8339 65.9136C38.9583 67.1639 41.6966 70.53 44.3781 73.7301C47.1822 77.0765 50.5892 78.6851 54.9936 79.4801C69.1268 82.0313 83.2031 80.8342 97.3096 79.7579C115.128 78.3985 132.939 77.7813 150.48 82.0094C155.84 83.3014 159.19 81.2348 161.817 77.1569C166.949 69.189 167.991 60.3419 166.511 51.2134C165.421 44.4863 163.574 37.8844 162.403 31.1675C159.767 16.0379 169.055 2.80134 183.853 0.327619C187.197 -0.231432 190.512 -0.176715 193.648 1.29881C196.766 2.76576 198.612 5.10466 198.583 8.7205C198.552 12.5 196.305 14.5136 193.039 15.5197C190.991 16.1504 188.804 16.3194 186.691 16.7491C180.837 17.9392 178.079 20.8743 178.606 26.8106C179.221 33.7464 180.702 40.6025 181.718 47.5065C184.197 64.3647 182.044 80.0747 170.11 93.2784C168.741 94.7932 168.317 96.289 169.142 98.2679C172.673 106.742 174.884 115.582 176.987 124.517C178.237 129.829 182.041 134.369 186.671 137.52C191.444 140.768 193.289 145.126 193.569 150.609C193.831 155.76 194.314 160.83 197.275 165.422C199.174 168.367 199.02 171.82 197.457 175.016C196.178 177.632 194.123 179.316 191.053 178.608C188.143 177.937 187.167 175.481 187.226 172.868C187.276 170.671 186.973 168.675 186.444 166.539C184.451 158.495 179.844 153.236 172.006 150.144C165.724 147.665 159.891 144.047 153.739 140.873C151.127 143.898 150.436 147.281 150.362 150.797C150.084 163.914 140.87 171.497 132.464 179.47C130.273 181.548 126.918 181.615 123.87 181.307C121.485 181.067 118.949 180.508 118.406 177.783C117.829 174.893 119.784 172.967 122.254 172.092C125.573 170.916 128.014 169.025 129.779 165.958C132.587 161.079 133.08 156.287 130.147 151.297C129.052 149.433 128.138 147.46 127.193 145.511C123.085 137.037 123.059 136.718 113.928 137.666C105.271 138.566 96.6268 138.692 87.9822 138.342C83.3457 138.154 82.2545 139.954 82.6181 144.208C83.439 153.809 84.461 163.391 81.8114 172.989C80.2985 178.47 77.4363 181.387 71.3214 181.365Z" fill="black"/>
</svg>
