<svg width="200" height="181" viewBox="0 0 200 181" fill="none" xmlns="http://www.w3.org/2000/svg">
<path d="M2.06654 93.0281C-0.183525 90.7182 -0.549034 88.5098 0.740547 85.9106C2.08189 83.207 2.75654 80.3369 2.8794 77.2598C3.02656 73.5747 4.67265 70.3075 7.89082 68.504C11.421 66.5256 11.7845 64.2091 10.3942 60.7244C9.50044 58.4842 8.63496 56.0366 9.24955 53.5615C10.7954 51.8446 12.0484 53.7196 13.6957 53.8784C13.9443 49.6959 16.3482 48.2783 19.0868 51.2405C26.3637 59.1114 35.7689 64.4394 43.1826 72.0195C46.4834 75.3945 49.6207 77.5778 54.4616 78.3904C69.775 80.9608 85.012 79.6957 100.28 78.5283C117.131 77.2398 133.941 77.343 150.474 81.1266C155.664 82.3142 158.914 80.5947 161.562 76.7526C167.714 67.8262 168.478 58.0035 166.404 47.6103C164.942 40.2882 162.63 33.0987 162.734 25.495C162.921 11.8265 171.936 1.7084 185.491 0.144779C189.231 -0.286629 192.863 0.189987 196.039 2.33752C201.382 5.95083 200.996 12.1205 195.326 15.1938C192.76 16.5854 189.903 16.7261 187.114 17.1556C181.514 18.0179 179.282 20.4618 179.269 26.1613C179.252 32.6957 181.019 39.0069 181.995 45.4125C183.655 56.2998 183.249 66.9276 179.462 77.3819C177.556 82.6453 174.863 87.3655 171.043 91.412C168.768 93.8216 168.09 96.2177 169.216 99.5422C171.322 105.759 171.703 112.27 171.189 118.802C170.598 126.305 173.695 132.302 179.44 136.592C184.58 140.431 185.911 145.269 185.029 151.042C184.113 157.046 183.693 162.951 185.851 168.784C186.077 169.397 186.216 170.095 186.183 170.742C186 174.322 184.93 177.713 180.92 178.133C176.907 178.554 175.494 175.148 175.065 171.954C174.537 168.016 174.433 164.016 174.014 160.042C173.417 154.385 170.96 150.963 165.491 149.112C160.654 147.476 156.089 145.035 151.191 142.854C149.656 145.846 151.017 148.406 151.688 150.787C152.682 154.314 152.213 157.379 150.153 160.257C146.274 165.675 142.494 171.177 138.365 176.4C135.396 180.157 131.082 180.819 126.567 179.977C124.531 179.597 122.659 178.67 122.391 176.285C122.131 173.965 123.692 172.57 125.455 171.538C127.575 170.297 129.979 169.692 131.47 167.341C136.208 159.87 136.136 157.72 130.46 150.733C127.517 147.11 124.646 143.418 122.539 139.225C121.62 137.398 120.437 136.261 118.256 136.608C108.493 138.159 98.6619 137.862 88.8569 137.404C84.8124 137.215 83.0977 138.842 82.5866 142.603C82.0046 146.886 81.2706 151.152 80.4913 155.404C79.6767 159.851 81.5875 163.212 84.6569 166.053C87.0346 168.254 88.1615 170.895 87.9855 174.058C87.8558 176.389 86.8116 178.343 84.4312 178.98C82.2349 179.567 80.1771 178.464 79.3771 176.615C77.6274 172.571 74.2585 170.117 71.2456 167.291C68.5197 164.735 67.6827 161.341 66.9111 157.927C65.8465 153.216 64.8381 148.505 62.8782 144.046C61.6112 141.163 59.4484 139.51 56.4299 139.189C53.6372 138.892 53.0814 141.521 51.953 143.235C44.1557 155.079 35.1317 165.944 25.5934 176.4C23.6953 178.48 21.2333 179.587 18.4328 179.3C15.0534 178.955 11.1845 178.231 10.548 174.401C9.87873 170.374 13.5025 169.367 16.7233 168.724C19.7144 168.126 21.1145 165.834 22.3059 163.435C26.014 155.968 29.7069 148.424 31.532 140.273C33.7413 130.406 32.7212 120.84 26.7476 112.24C25.132 109.913 23.4663 107.61 22.0282 105.175C19.1975 100.382 16.1286 96.4036 9.53855 97.2332C6.63233 97.5991 4.23487 95.5509 2.06654 93.0281Z" fill="black"/>
</svg>
