<svg width="203" height="181" viewBox="0 0 203 181" fill="none" xmlns="http://www.w3.org/2000/svg">
<path d="M57.0505 150.309C56.1811 147.951 56.1864 145.653 54.1498 143.498C48.4106 147.718 42.5521 151.735 37.0546 156.197C34.5075 158.264 35.5938 161.429 36.4359 164.153C37.1861 166.58 37.8039 168.937 36.6323 171.431C35.7893 173.227 34.5812 174.565 32.5734 174.695C30.3182 174.841 28.5752 173.592 27.9856 171.527C26.5275 166.42 25.2647 161.251 24.1114 156.066C23.702 154.224 24.5517 152.456 25.554 150.88C26.4475 149.475 27.405 148.111 28.3474 146.738C37.2822 133.72 37.2307 127.103 28.1073 114.164C25.996 111.17 23.6968 108.28 21.8713 105.119C18.9431 100.048 15.5573 96.9403 8.91457 97.0762C1.87288 97.2204 -1.62498 90.975 0.731402 84.4842C1.47347 82.4401 1.96846 80.3682 1.97438 78.1543C1.98531 74.0547 3.66909 70.5302 7.03017 68.3414C10.0209 66.3937 10.4606 64.2917 9.33937 61.1892C8.45058 58.7295 7.36708 56.1996 8.24556 53.5266C9.7723 51.7999 10.9907 54.1985 12.3956 53.7067C13.3225 52.728 12.715 51.0089 14.2474 50.1485C14.5369 50.1261 15.0824 49.9232 15.4952 50.0767C20.0432 51.7673 23.4832 54.9408 26.078 58.8746C27.7271 61.3746 29.5383 63.1269 32.4755 63.9799C36.4088 65.1222 39.7044 67.4333 42.0294 70.8603C45.4766 75.9415 50.3066 77.8983 56.3059 78.7358C71.8021 80.8993 87.2028 79.4804 102.627 78.3745C118.149 77.2617 133.576 77.706 148.848 80.8617C156.196 82.3799 159.824 81.0124 163.772 74.346C168.699 66.0263 169.084 56.9637 167.513 47.7193C166.621 42.473 165.311 37.2988 164.375 32.0591C161.432 15.6008 170.624 2.56674 186.74 0.212005C190.302 -0.30843 193.739 0.0983227 196.935 1.77739C199.763 3.26311 201.622 5.45875 201.556 8.88943C201.488 12.4136 199.357 14.4256 196.363 15.4789C194.034 16.2983 191.539 16.7164 189.085 17.0972C182.858 18.0633 180.232 20.7864 180.684 27.1932C181.128 33.4806 182.383 39.7062 183.085 45.9811C184.534 58.9413 183.811 71.6106 177.317 83.3479C176.193 85.3798 175.167 87.738 173.434 89.111C167.862 93.526 168.469 98.361 171.268 103.981C173.415 108.292 174.757 112.984 175.623 117.749C177.11 125.937 181.701 132.171 188.286 136.791C192.805 139.961 194.825 144.101 195.555 149.264C196.28 154.385 197.182 159.422 200.697 163.599C202.894 166.209 202.998 169.45 202.398 172.64C201.936 175.096 200.578 177.001 197.854 177.262C195.014 177.535 193.33 175.706 192.858 173.307C191.767 167.772 188.475 163.285 186.285 158.282C185.452 156.38 184.315 154.808 182.437 153.865C172.936 149.094 163.07 145.089 153.751 139.654C150.423 143.462 149.652 147.743 149.698 152.018C149.749 156.644 148.357 160.474 145.414 163.9C141.835 168.066 138.389 172.351 134.705 176.421C131.816 179.613 127.987 180.696 123.79 180.014C121.485 179.64 118.982 178.986 118.662 176.087C118.358 173.337 120.261 171.776 122.524 170.886C125.05 169.892 127.271 168.796 128.859 166.364C132.277 161.129 133.853 156.117 129.842 150.295C127.602 147.045 126.134 143.22 124.615 139.532C123.637 137.157 122.287 136.084 119.709 136.445C106.964 138.232 94.1666 138.528 81.3655 137.324C77.0564 136.919 75.3223 138.665 74.9351 142.746C74.3698 148.705 73.2501 154.622 72.92 160.588C72.6417 165.616 70.6779 169.915 68.5482 174.247C66.226 178.971 61.168 181.314 56.1062 179.958C54.151 179.434 52.1377 178.759 51.8013 176.359C51.4459 173.824 52.9446 171.903 55.0521 171.307C60.3667 169.804 60.426 166.208 59.4913 161.927C58.6753 158.19 57.9266 154.439 57.0505 150.309Z" fill="black"/>
</svg>
