<svg width="209" height="182" viewBox="0 0 209 182" fill="none" xmlns="http://www.w3.org/2000/svg">
<path d="M2.79343 175.637C-1.58316 172.243 -0.189543 169.197 2.69504 166.176C11.5351 156.917 20.6201 147.899 29.1117 138.299C34.1103 132.648 34.8425 125.75 36.0156 118.889C36.3537 116.911 35.2244 115.393 34.222 113.846C32.4109 111.05 30.4853 108.313 28.8863 105.399C26.224 100.547 22.9975 97.6842 16.7383 97.8816C9.28171 98.1167 5.81882 92.2286 8.3555 85.1549C9.05551 83.203 8.98489 81.2282 9.09934 79.2454C9.33139 75.2249 10.6207 71.5708 14.0073 69.2947C17.2726 67.1003 17.6256 64.7442 16.1747 61.3117C15.3133 59.2741 14.409 56.9282 15.5174 54.685C16.8532 53.3235 18.1286 55.0006 19.748 54.4034C20.0367 49.3487 22.9384 50.0811 25.6131 52.5829C32.1992 58.7438 40.482 63.448 46.2052 69.7648C54.0521 78.4254 63.0548 79.4529 72.8632 80.3786C83.1825 81.3525 93.4804 80.0093 103.767 79.2539C121.089 77.9819 138.349 77.6785 155.479 81.3325C162.405 82.8098 165.781 80.9628 169.002 74.5363C173.643 65.2766 173.723 55.7434 171.342 45.843C169.376 37.6638 166.372 29.6254 167.966 20.8557C170.22 8.46213 180.905 -0.485807 193.484 0.0204487C196.181 0.12897 198.763 0.854677 200.938 2.565C205.773 6.36685 205.154 12.4753 199.539 15.0277C197.454 15.9754 195.099 16.4296 192.817 16.8228C185.66 18.056 183.186 21.2587 184.22 28.5797C185.335 36.4775 186.913 44.3196 187.77 52.2422C189.354 66.8736 186.5 80.4574 176.636 91.877C174.468 94.3868 173.985 96.3992 175.424 99.4088C178.881 106.637 181.135 114.272 182.844 122.121C184.29 128.761 188.634 133.806 194.059 137.532C198.434 140.537 200.675 144.432 201.503 149.377C202.386 154.655 203.531 159.725 206.606 164.339C208.552 167.259 209.185 170.835 207.668 174.381C206.667 176.719 205.083 178.296 202.366 178.116C199.872 177.95 198.6 176.295 197.817 174.092C196.982 171.741 197.102 169.227 196.113 166.839C192.985 159.293 188.395 153.668 180.31 150.752C173.31 148.227 166.914 144.179 160.425 140.144C157.152 143.525 156.544 147.549 156.716 151.43C156.952 156.794 155.27 161.176 151.948 165.188C148.975 168.778 146.211 172.543 143.2 176.1C139.928 179.968 135.605 181.372 130.643 180.681C128.446 180.375 126.203 179.658 125.678 177.161C125.094 174.386 127.055 172.684 129.219 171.783C132.227 170.533 134.751 169.076 136.508 166.129C139.501 161.11 140.229 156.266 136.885 151.138C135.708 149.333 134.449 147.425 133.915 145.384C131.909 137.713 127.236 135.485 119.651 137.03C111.122 138.767 102.384 138.171 93.7375 137.908C89.5045 137.779 88.1875 139.374 88.3697 143.435C88.6607 149.921 88.5586 156.426 88.5868 162.923C88.6051 167.145 87.7021 171.211 86.0342 175.062C83.9027 179.983 79.3386 182.041 74.1458 180.611C72.4862 180.154 70.9773 179.47 70.4906 177.6C69.9985 175.71 70.8567 174.135 72.3366 173.314C77.0908 170.676 76.7351 166.683 75.3685 162.505C73.61 157.128 71.916 151.697 69.657 146.525C66.1994 138.608 59.2212 137.088 52.9848 142.958C44.6219 150.831 34.8731 156.509 24.7722 161.669C19.9531 164.131 15.5522 166.933 12.4441 171.512C10.2546 174.738 7.43021 176.894 2.79343 175.637Z" fill="black"/>
</svg>
