<svg width="196" height="178" viewBox="0 0 196 178" fill="none" xmlns="http://www.w3.org/2000/svg">
<path d="M163.472 124.014C164.021 129.378 165.942 133.687 169.494 137.266C172.312 140.104 173.022 143.508 172.211 147.391C170.716 154.556 169.423 161.763 167.894 168.92C166.805 174.02 162.966 176.685 157.623 176.422C155.321 176.309 153.189 175.78 152.414 173.363C151.663 171.021 152.86 169.223 154.613 167.681C160.776 162.258 160.23 151.788 153.519 146.94C151.274 145.318 148.913 143.856 145.828 142.357C150.17 152.236 143.646 157.718 138.316 163.679C136.319 165.913 134.36 168.181 133.088 170.956C131.895 173.56 129.685 174.985 127.049 175.821C124.383 176.666 121.561 177.178 119.954 174.253C118.456 171.528 119.533 168.792 121.937 167.224C125.851 164.67 127.332 160.579 129.417 156.835C130.865 154.233 130.589 151.813 128.749 149.405C125.411 145.04 122.151 140.612 118.994 136.114C117.718 134.296 116.07 134.245 114.175 134.295C105.525 134.522 96.911 135.86 88.2306 135.167C85.3682 134.939 83.9661 136.178 83.7052 139.118C83.2937 143.756 82.566 148.365 82.0814 152.998C81.6419 157.199 84.3578 159.408 87.6366 161.018C90.2237 162.288 92.6909 163.559 93.994 166.335C94.8857 168.235 95.5163 170.125 93.8753 171.902C92.3294 173.576 90.2837 173.872 88.3648 172.923C79.1218 168.351 69.256 164.476 67.9376 151.951C67.5446 148.217 66.0414 144.493 63.8875 141.273C60.9755 136.918 58.5128 136.994 55.7448 141.159C48.6552 151.825 42.0107 162.797 33.7046 172.624C30.013 176.991 25.7906 178.527 20.9453 176.705C18.8127 175.903 16.861 174.776 16.8628 172.237C16.8646 169.785 18.581 167.9 20.7466 167.597C26.2428 166.829 27.7723 162.781 29.5066 158.506C32.6557 150.743 35.1979 142.749 35.8305 134.456C36.2967 128.345 34.4035 122.197 31.3101 116.874C27.9743 111.134 23.6677 105.967 20.0961 100.352C17.9282 96.9434 15.4883 94.8896 11.1982 95.3994C8.06438 95.7717 5.36016 94.4472 3.04208 92.31C0.355919 89.8335 -1.13776 87.2065 1.05962 83.5616C2.38326 81.3661 2.40148 78.8142 2.46844 76.2896C2.57528 72.2617 3.96905 68.5853 7.35861 66.3541C10.4226 64.3372 10.5391 62.158 9.33672 59.1542C8.372 56.7442 7.57354 54.2074 8.25338 51.7601C10.3816 50.7237 11.2706 52.8052 12.7561 52.7026C14.2888 47.4463 16.1572 46.4093 19.3912 50.6235C26.2732 59.5912 37.5235 63.1926 44.2092 72.1847C46.053 74.6645 48.834 75.5772 51.9808 76.1337C67.2538 78.8348 82.4466 77.5606 97.7652 76.4197C114.525 75.1715 131.383 74.8254 147.997 78.7098C154.428 80.2134 157.287 78.7971 160.642 73.0067C165.873 63.9793 166.089 54.3917 163.855 44.4712C162.218 37.1972 159.724 30.0925 160.289 22.3937C161.22 9.68664 171.26 -0.0180717 184.018 2.52683e-05C185.981 0.00280227 188.028 0.349177 189.886 0.978999C193.254 2.12091 195.787 4.3504 195.848 8.17028C195.91 12.1375 193.035 13.9683 189.767 15.2023C188.532 15.6686 187.186 15.8647 185.877 16.105C176.925 17.7473 174.942 20.8358 176.619 30.0061C178.353 39.4892 180.479 48.9246 180.037 58.6886C179.541 69.6304 176.764 79.7497 169.508 88.204C166.956 91.177 165.859 93.8919 166.72 98.0701C168.084 104.692 166.341 111.288 164.477 117.736C163.926 119.64 163.776 121.66 163.472 124.014Z" fill="black"/>
</svg>
