<svg width="198" height="179" viewBox="0 0 198 179" fill="none" xmlns="http://www.w3.org/2000/svg">
<path d="M36.9868 172.054C32.99 166.742 31.2078 160.863 29.7327 154.903C29.0722 152.235 29.7857 149.616 31.389 147.302C32.2422 146.07 33.0007 144.773 33.8474 143.536C38.3229 137.001 40.8692 131.46 34.8186 123.276C29.818 116.513 25.9461 108.543 21.2243 101.307C18.8612 97.6859 16.0552 95.4185 11.4047 95.9097C8.28969 96.2388 5.56188 94.9283 3.24223 92.7968C0.445359 90.2266 -1.20741 87.5659 1.07268 83.6462C2.0342 81.9932 2.57558 79.8174 2.51735 77.9034C2.36095 72.7615 4.26405 68.7905 8.44789 65.9654C10.7025 64.443 10.7375 62.702 9.96507 60.3636C9.04854 57.5892 8.0168 54.7469 8.64595 51.8594C10.5829 50.7789 11.5341 52.7809 12.8963 52.8634C14.0901 51.6354 13.0073 49.6497 15.0469 48.5201C19.2283 49.3756 22.3845 52.402 24.9094 55.8065C27.5797 59.4069 30.4286 62.2969 34.8899 63.5066C37.1462 64.1185 39.3783 65.4969 40.512 67.4932C45.2353 75.8102 53.2497 76.3875 61.4927 77.5145C77.5661 79.7123 93.38 76.4966 109.311 75.9888C122.529 75.5673 135.603 75.962 148.509 78.9669C155.508 80.5964 158.464 79.4447 162.178 73.2311C167.765 63.8829 167.714 53.9723 165.191 43.7703C163.517 37.0023 161.429 30.3314 161.642 23.1866C162.093 8.13372 175.126 -2.48499 189.937 0.505856C193.956 1.31756 197.095 3.54132 197.31 8.11145C197.513 12.4052 194.558 14.2145 190.971 15.3232C190.336 15.5195 189.694 15.7129 189.041 15.8297C178.455 17.7241 176.886 19.7549 178.4 30.4281C179.216 36.1858 180.57 41.8674 181.385 47.6252C183.666 63.7317 180.585 78.4528 169.481 90.8703C167.88 92.6602 167.802 94.3065 168.522 96.3252C171.056 103.437 172.25 110.728 172.492 118.318C172.707 125.051 175.801 131.003 181.023 135.252C185.66 139.025 186.807 143.614 185.951 149.01C185.003 154.983 184.669 160.927 185.759 166.895C186.252 169.591 185.319 171.824 183.665 173.807C182.297 175.447 180.502 176.311 178.337 175.745C175.963 175.125 174.739 173.318 174.47 171.032C174.299 169.583 174.636 168.066 174.805 166.586C176.182 154.501 173.976 150.293 163.364 144.641C160.424 143.076 157.524 141.434 154.648 139.754C151.927 138.164 149.261 136.477 146.139 134.569C142.436 138.311 140.919 142.946 141.816 148.017C142.586 152.368 141.746 155.902 138.884 159.093C134.22 164.291 129.664 169.592 124.841 174.639C121.719 177.906 117.578 177.545 113.581 176.68C112.061 176.351 110.96 175.221 110.811 173.504C110.593 170.998 111.905 169.101 114.012 168.354C119.101 166.549 121.213 162.246 123.557 158.023C124.803 155.779 124.817 153.765 123.453 151.474C120.645 146.76 117.421 142.266 115.412 137.104C114.585 134.98 112.886 134.781 110.92 134.854C99.4575 135.282 88.0039 136.763 76.5215 135.093C73.9393 134.717 72.6752 135.907 72.1354 138.593C70.6939 145.767 68.7727 152.846 67.3661 160.025C66.3449 165.238 63.9298 169.755 61.136 174.085C58.6015 178.014 51.106 179.391 47.1732 176.966C44.2221 175.147 43.9383 171.046 47.4066 169.803C55.7131 166.826 53.6506 160.369 53.5431 154.494C53.5015 152.22 52.82 149.958 52.427 147.673C43.4372 149.823 40.454 155.139 43.2774 163.454C45.5335 170.099 43.2922 173.415 36.9868 172.054Z" fill="black"/>
</svg>
