<svg width="206" height="180" viewBox="0 0 206 180" fill="none" xmlns="http://www.w3.org/2000/svg">
<path d="M105.823 77.6289C121.339 76.9415 136.28 77.4882 150.988 80.9708C155.659 82.0767 158.265 79.2378 160.41 76.01C165.887 67.7695 166.608 58.5621 164.946 49.1182C163.851 42.8967 162.079 36.7963 160.916 30.5846C157.92 14.5934 168.305 1.17364 184.456 0.0313356C185.928 -0.0727294 187.456 0.0926153 188.91 0.376306C193.193 1.21169 196.658 3.3605 196.759 8.07818C196.864 12.9969 192.897 14.6649 188.917 15.8157C187.336 16.2726 185.608 16.1974 183.994 16.5669C179.292 17.643 176.897 20.5975 176.983 25.4879C177.119 33.191 179.511 40.5475 180.396 48.1583C182.268 64.2531 179.975 79.0417 168.826 91.5334C167.116 93.4492 166.902 95.2289 168.041 97.4012C171.846 104.655 174.203 112.465 176.955 120.139C179.146 126.248 183.542 131.08 189.125 134.263C194.011 137.05 196.213 141.052 196.995 146.236C197.867 152.024 198.724 157.778 203.196 162.203C203.966 162.965 204.391 164.24 204.623 165.352C205.358 168.876 205.923 172.907 201.843 174.44C197.709 175.994 196.146 172.256 194.663 169.225C194.299 168.48 194.064 167.672 193.704 166.925C186.047 151.021 186.059 150.983 169.27 145.042C163.313 142.934 157.462 140.622 152.052 137.065C148.304 140.981 146.885 145.432 147.24 150.116C147.679 155.917 145.743 160.459 141.929 164.582C138.766 168.001 135.87 171.666 132.789 175.163C129.422 178.987 125.063 180.233 120.148 179.561C117.949 179.259 115.781 178.472 115.526 175.787C115.292 173.326 116.745 171.706 118.827 170.683C121.038 169.596 123.453 169.065 125.165 166.93C130.39 160.414 130.75 156.677 126.544 149.243C125.315 147.071 123.729 144.953 123.127 142.601C121.638 136.779 118.196 135.11 112.484 136.001C102.574 137.547 92.5493 137.121 82.5653 136.873C79.0259 136.786 77.5861 138.15 78.0774 141.571C78.8094 146.669 79.419 151.794 80.4206 156.841C81.4521 162.037 81.1624 167.109 79.9025 172.175C78.36 178.377 74.1905 180.962 67.9444 179.621C66.1258 179.231 64.3014 178.693 63.7032 176.619C63.0585 174.383 63.9918 172.348 65.8453 171.493C70.3503 169.413 69.6082 166.203 68.1616 162.793C65.0555 155.47 61.5619 148.359 56.3449 142.074C52.6321 143.842 51.1519 147.237 48.703 149.634C40.0269 158.126 31.4466 166.716 22.7773 175.215C19.5863 178.344 15.7336 178.788 11.6621 177.298C9.5559 176.527 7.69195 175.21 7.6975 172.685C7.70342 169.99 9.51165 168.09 11.8945 167.758C16.6452 167.097 19.02 163.915 21.2931 160.326C25.8356 153.153 30.809 146.187 33.3858 137.99C35.6863 130.673 34.863 123.512 30.7462 117.005C27.2764 111.521 23.35 106.327 19.7629 100.914C17.9344 98.1553 15.6843 96.713 12.2826 97.0468C8.80944 97.3877 5.7113 96.3578 3.0877 93.9773C0.388789 91.5284 -1.10792 88.9024 0.985408 85.2293C2.1466 83.1918 2.47235 80.8699 2.53949 78.4843C2.65179 74.4905 3.96655 70.8482 7.26428 68.4347C10.3801 66.1543 10.8741 63.6255 9.31976 60.2503C8.34405 58.1319 7.96588 55.833 8.83526 53.6764C10.4985 52.8025 11.4972 54.2269 12.5834 54.434C12.8902 54.2057 13.0224 54.1226 13.1371 54.0198C17.5895 50.0326 18.0956 49.709 22.5103 54.881C26.6743 59.7596 30.8847 64.1457 37.1389 66.1852C38.1777 66.5239 39.3359 67.3805 39.8465 68.3198C45.634 78.9676 56.1696 78.5023 65.9685 79.3793C79.1408 80.5583 92.2109 78.2374 105.823 77.6289Z" fill="black"/>
</svg>
