<svg width="204" height="182" viewBox="0 0 204 182" fill="none" xmlns="http://www.w3.org/2000/svg">
<path d="M16.1533 157.175C20.0572 152.166 23.6355 147.351 27.4449 142.726C32.2152 136.934 33.8141 130.047 34.8479 122.896C35.1789 120.606 34.5785 118.726 33.202 116.851C30.9367 113.767 28.7782 110.583 26.8344 107.287C23.6917 101.959 20.5745 97.7877 13.0098 98.1421C6.11501 98.4651 2.63301 92.129 5.00167 85.8036C5.72316 83.8769 5.94209 81.9357 6.00215 79.9358C6.13503 75.5159 7.62563 71.6951 11.4321 69.2477C14.3859 67.3486 14.6974 65.2631 13.418 62.1156C12.4619 59.7637 11.3302 57.1657 12.2772 54.5279C13.7946 53.2188 14.8198 54.9609 16.074 54.8893C18.3779 50.2683 19.4791 49.6415 23.1759 53.0445C29.5645 58.9256 35.206 65.649 43.4683 69.1401C50.4062 80.9426 62.4806 79.711 73.5283 80.8132C81.8533 81.6435 90.167 80.3273 98.4616 79.7363C117.616 78.3716 136.725 77.547 155.624 81.9955C160.35 83.1079 163.342 80.7494 165.779 77.3568C172.203 68.415 172.155 58.3548 170.339 48.1249C169.264 42.0668 167.512 36.1192 166.617 30.0406C164.354 14.6707 174.412 1.83318 189.79 0.1245C191.27 -0.0399279 192.798 -0.0413927 194.277 0.119556C199.728 0.712147 203.355 3.97387 203.502 8.28154C203.64 12.3756 200.465 15.3444 194.873 16.3406C193.076 16.6608 191.25 16.8602 189.483 17.3015C185.381 18.3261 183.442 21.0292 183.308 25.2604C183.088 32.1688 184.969 38.7865 185.97 45.5196C187.482 55.6881 187.576 65.7186 184.5 75.6578C182.493 82.1408 179.209 87.8772 174.79 92.9573C173.085 94.9163 172.485 96.6051 173.699 99.1894C177.256 106.762 179.295 114.775 180.718 123.052C181.882 129.819 186.148 135.237 191.366 139.533C196.14 143.464 198.331 148.315 198.463 154.282C198.556 158.518 200.087 162.414 201.054 166.451C202.868 174.02 200.166 179.414 194.352 180.209C189.781 180.833 187.297 177.743 188.967 173.509C190.999 168.353 188.495 158.622 183.9 155.79C175.419 150.563 166.348 146.347 158.135 140.476C154.89 143.817 154.54 147.604 154.334 151.402C153.634 164.331 144.857 172.143 136.082 179.81C133.654 181.931 130.097 181.655 126.912 181.167C124.864 180.854 122.911 180.058 122.402 177.79C121.829 175.238 123.56 173.761 125.48 172.614C127.591 171.352 130.203 171.017 131.817 168.821C135.907 163.257 138.427 157.604 133.954 150.985C132.751 149.205 131.918 147.165 130.999 145.205C127.042 136.763 127.024 136.519 117.904 137.639C109.25 138.7 100.598 138.411 91.9482 138.305C87.896 138.255 86.1253 139.459 86.4837 143.705C86.9734 149.509 87.0687 155.344 87.4426 161.159C87.7262 165.569 86.8457 169.771 85.5362 173.925C83.6435 179.929 79.323 182.49 73.291 181.165C71.435 180.757 69.7228 180.042 69.1774 177.994C68.627 175.928 69.6336 174.131 71.2716 173.311C76.1034 170.891 75.4633 167.079 74.2452 163.081C72.4471 157.18 70.389 151.359 67.4566 145.916C64.2396 139.944 58.8134 138.632 53.9973 143.307C44.4863 152.539 33.6187 159.924 22.852 167.482C19.9293 169.534 18.0604 172.55 15.7056 175.123C12.0222 179.148 6.90096 179.86 2.6313 177.033C1.02229 175.968 -0.181562 174.651 0.0226003 172.544C0.21895 170.519 1.38625 168.658 3.18215 168.45C10.0481 167.656 12.39 161.919 16.1533 157.175Z" fill="black"/>
</svg>
