<svg width="209" height="182" viewBox="0 0 209 182" fill="none" xmlns="http://www.w3.org/2000/svg">
<path d="M140.432 80.0615C144.31 80.7376 147.804 81.1674 151.161 82.093C155.935 83.4091 159.293 81.6145 161.889 77.8425C167.962 69.019 168.564 59.2395 166.55 49.1234C165.38 43.2496 163.738 37.4707 162.538 31.6022C158.963 14.1356 171.092 -0.548933 188.526 0.0157636C194.173 0.198686 198.072 2.93099 198.622 7.092C199.215 11.5703 196.527 14.4656 190.396 15.9025C189.101 16.206 187.776 16.3821 186.471 16.6461C181.298 17.6925 178.663 20.6979 178.65 26.0366C178.632 33.0777 180.922 39.793 181.865 46.7125C184.176 63.6793 182.852 79.6693 170.74 93.1218C169.209 94.823 169.032 96.5383 170.052 98.5975C173.969 106.506 177.178 114.687 180.153 123.011C182.185 128.698 186.542 133.345 191.669 136.515C196.819 139.698 199.346 144.088 200.68 149.641C201.928 154.835 203.636 159.81 206.702 164.337C208.815 167.457 209.422 171.152 207.769 174.83C206.739 177.123 205.08 178.771 202.363 178.381C199.955 178.036 198.398 176.343 198.185 174.012C197.61 167.702 193.602 163.044 190.769 157.817C189.475 155.43 187.105 154.498 184.773 153.592C175.928 150.156 166.948 147.049 158.5 142.655C157.806 142.294 156.952 142.241 156.145 142.038C153.83 144.974 154.213 148.256 154.588 151.295C155.245 156.629 153.795 161.104 150.477 165.212C147.444 168.968 144.658 172.922 141.672 176.716C138.483 180.768 134.096 181.949 129.176 181.481C126.759 181.252 124.388 180.551 124.056 177.656C123.744 174.938 125.54 173.313 127.809 172.35C129.799 171.506 131.843 170.94 133.329 169.144C138.462 162.938 138.704 158.336 134.025 151.812C131.392 148.142 129.059 144.305 127.403 140.096C126.521 137.854 125.34 136.398 122.588 136.894C111.706 138.858 100.7 138.792 89.7109 138.524C85.7992 138.429 84.1825 139.717 84.6188 143.694C85.1807 148.816 85.0722 154.052 86.07 159.076C87.2347 164.94 85.9842 170.364 84.344 175.767C82.7877 180.894 75.2803 183.408 70.5694 180.673C67.3992 178.832 67.3231 175.189 71.1313 173.199C75.2022 171.072 74.9845 168.382 73.8843 164.959C71.6829 158.109 68.8302 151.518 65.042 145.427C60.814 138.628 53.8939 138.631 49.164 144.911C40.9533 155.812 32.486 166.515 23.5291 176.82C20.1823 180.671 15.441 181.601 10.8699 179.338C8.97013 178.398 7.39872 177.072 7.46433 174.823C7.5344 172.419 9.00834 170.379 11.3092 170.201C16.8175 169.773 18.795 165.898 20.6689 161.696C26.5296 148.554 31.9837 135.425 29.4297 120.385C27.9735 111.81 22.6164 105.825 17.4262 99.6321C16.0467 97.986 13.6395 98.6746 11.68 98.6694C7.35636 98.658 3.94279 96.9712 1.40537 93.4914C0.607092 92.3966 -0.435145 90.9834 0.192052 89.8402C3.99741 82.9033 0.809117 73.0198 9.37839 68.1084C11.576 66.8488 10.4654 64.9546 10.1184 63.2046C9.57743 60.4766 8.24698 57.8606 8.74192 55.1307C10.1097 53.4466 11.3276 55.3297 12.9497 54.8482C13.7118 49.2099 16.9235 50.6632 19.7437 53.2611C26.0118 59.0351 33.2297 63.9052 39.2696 69.5116C46.8783 76.5744 54.3218 79.6642 64.1978 80.5711C75.1136 81.5736 85.8312 80.4708 96.6 79.7817C111.086 78.8547 125.533 78.2855 140.432 80.0615Z" fill="black"/>
</svg>
