<svg width="205" height="185" viewBox="0 0 205 185" fill="none" xmlns="http://www.w3.org/2000/svg">
<path d="M138.484 160.739C136.714 153.496 132.037 148.008 129.632 141.445C129.087 139.958 127.473 140.051 126.128 140.275C114.727 142.174 103.235 142.057 91.7468 141.724C88.3701 141.626 86.8012 142.726 86.9883 146.276C87.2775 151.761 87.1233 157.275 87.5547 162.745C88.0154 168.586 86.681 174.029 84.4918 179.278C82.6168 183.773 74.6269 185.823 70.6624 183.101C67.9202 181.219 67.9121 177.5 71.4145 175.834C76.0568 173.626 75.4547 170.599 74.4869 166.802C72.916 160.639 70.6464 154.757 68.0647 148.97C66.6778 145.862 64.3137 144.217 61.0863 143.095C56.9994 141.675 54.0666 142.736 51.3443 145.774C43.4181 154.621 34.0716 161.902 24.9918 169.473C21.7808 172.15 18.9665 175.179 16.3094 178.415C12.7215 182.785 7.99109 183.578 3.36033 180.999C1.52185 179.975 -0.035039 178.659 0.000600022 176.413C0.039813 173.942 1.73476 172.024 3.86915 171.756C9.48125 171.05 11.8498 166.955 14.4958 162.884C18.1251 157.301 21.7767 151.722 25.6675 146.32C31.4314 138.319 33.1527 129.1 32.4958 119.755C31.9731 112.318 26.7208 106.533 22.1021 100.876C20.9821 99.5043 18.963 100.018 17.3251 99.9991C13.03 99.9504 9.61097 98.1626 6.91873 94.9076C5.95532 93.7429 4.74114 92.2476 5.41177 90.8633C7.97618 85.5695 6.63511 78.3588 10.4759 74.5026C16.0905 68.8655 17.3826 63.3468 15.3625 56.2714C15.259 55.909 15.6935 55.3931 15.8317 55.0592C17.3527 54.0398 18.4019 55.7988 20.1379 55.3482C20.8485 50.1909 23.891 50.495 26.7728 53.6061C32.7927 60.1052 38.369 67.0266 46.5372 71.0663C52.0439 82.7596 63.3114 82.2061 73.4818 83.2837C87.4508 84.7637 101.429 82.7451 115.38 82.0332C127.6 81.4096 139.686 81.9533 151.704 83.8269C162.382 85.4917 166.767 83.0518 170.435 72.6567C174.229 61.9068 172.503 51.3233 169.775 40.7324C167.677 32.5864 166.379 24.5201 169.548 16.2212C173.808 5.06569 185.304 -1.74382 197.068 0.390034C201.469 1.18819 204.603 3.60579 204.862 8.19979C205.123 12.8121 201.821 14.8738 197.804 15.9541C197.644 15.9972 197.477 16.0324 197.312 16.0376C185.609 16.4005 182.682 22.1771 185.363 35.1366C187.888 47.3407 190.124 59.5968 187.215 72.1999C185.297 80.5086 182.063 88.0436 176.497 94.4357C174.333 96.9211 173.883 99.0269 175.195 102.042C178.454 109.532 180.853 117.288 182.228 125.393C183.247 131.396 186.995 136.188 191.522 139.835C197.162 144.38 199.835 149.968 200.458 156.931C200.829 161.082 201.99 165.034 203.396 168.994C206.167 176.797 202.584 183.081 195.877 182.933C191.625 182.839 189.852 180.184 191.427 176.271C193.366 171.455 190.794 161.944 186.707 158.902C186.177 158.507 185.565 158.219 184.979 157.904C176.49 153.35 168 148.799 159.348 144.161C156.985 146.989 155.945 150.262 156.184 153.509C156.679 160.222 153.961 165.454 149.794 170.264C147.07 173.408 144.373 176.574 141.676 179.741C138.428 183.553 134.163 184.41 129.459 183.932C127.159 183.698 125.145 182.818 124.625 180.333C124.055 177.614 125.577 175.536 127.937 174.869C134.997 172.875 137.156 167.38 138.484 160.739Z" fill="black"/>
</svg>
